<?xml version="1.0" encoding="utf-8"?>
<!-- Generator: Adobe Illustrator 23.0.3, SVG Export Plug-In . SVG Version: 6.00 Build 0)  -->
<svg version="1.1" id="Layer_1" xmlns="http://www.w3.org/2000/svg" xmlns:xlink="http://www.w3.org/1999/xlink" x="0px" y="0px"
	 viewBox="0 0 271 34.2" style="enable-background:new 0 0 271 34.2;" xml:space="preserve">
<style type="text/css">
	.st0{enable-background:new    ;}
	.st1{fill:#00539F;}
	.st2{fill:#EE1C2E;}
</style>
<g class="st0">
	<path class="st1" d="M132.4,0.5h7.4c2.1,0,3.8,0.5,5,1.6s1.8,2.6,1.8,4.4c0,1.5-0.4,2.8-1.3,3.8c-0.9,1-1.9,1.7-3.2,2l6.6,10.5
		h-3.2L139,12.5h-3.6v10.3h-2.8V0.5H132.4z M139.8,9.9c1.2,0,2.1-0.3,2.8-0.8c0.7-0.6,1-1.4,1-2.5s-0.3-2-1-2.6s-1.6-0.9-2.8-0.9
		h-4.6v6.8C135.2,9.9,139.8,9.9,139.8,9.9z"/>
</g>
<g class="st0">
	<path class="st1" d="M165.4,15.2h-12.8c0.1,1.7,0.6,3,1.6,4s2.1,1.5,3.6,1.5c1.1,0,2.1-0.2,2.9-0.7c0.8-0.5,1.5-1.2,2.1-2.2L165,19
		c-0.9,1.4-1.9,2.4-3.1,3.1c-1.2,0.7-2.6,1-4.3,1c-1.6,0-3-0.4-4.2-1.2c-1.2-0.8-2.1-1.8-2.7-3.1c-0.6-1.3-0.9-2.7-0.9-4.3
		c0-1.5,0.3-3,1-4.3s1.6-2.3,2.8-3.1c1.2-0.8,2.6-1.2,4.1-1.2s2.9,0.4,4,1.1c1.2,0.7,2.1,1.7,2.7,2.9c0.6,1.2,0.9,2.5,0.9,4
		L165.4,15.2L165.4,15.2z M162.7,12.9c-0.1-1.3-0.6-2.3-1.6-3.1c-0.9-0.8-2-1.2-3.4-1.2c-1.2,0-2.3,0.4-3.2,1.2s-1.5,1.9-1.7,3.2
		h9.9V12.9z"/>
</g>
<g class="st0">
	<path class="st1" d="M170.8,22.6c-0.8-0.4-1.5-1-2-1.7s-0.7-1.6-0.7-2.6c0-1.7,0.7-3.1,2-4s3.1-1.4,5.3-1.4h3.5v-0.8
		c0-1.1-0.4-1.9-1.1-2.5s-1.7-0.9-2.9-0.9c-1,0-1.9,0.2-2.6,0.7c-0.7,0.5-1.3,1.1-1.7,1.9l-2.1-1.2c0.6-1.1,1.4-2,2.5-2.7
		s2.4-1.1,3.9-1.1c2,0,3.6,0.5,4.8,1.6c1.2,1,1.8,2.5,1.8,4.4v10.8h-2.1l-0.5-2.5c-0.5,0.8-1.3,1.5-2.2,2s-2,0.8-3.2,0.8
		C172.5,23.2,171.6,23,170.8,22.6z M176.3,20.2c0.8-0.4,1.4-1,1.8-1.7c0.5-0.8,0.7-1.6,0.7-2.7v-0.6h-3.5c-1.5,0-2.6,0.3-3.4,0.8
		c-0.8,0.5-1.2,1.3-1.2,2.2c0,0.8,0.3,1.5,0.8,1.9c0.6,0.5,1.3,0.7,2.2,0.7C174.8,20.8,175.6,20.6,176.3,20.2z"/>
</g>
<g class="st0">
	<path class="st1" d="M188.7,22.9H186V0.2h2.7V22.9z"/>
</g>
<g class="st0">
	<path class="st1" d="M215.3,3.1h-10.5v6.8h8.6v2.6h-8.6v10.3H202V0.5h13.3V3.1z"/>
</g>
<g class="st0">
	<path class="st1" d="M217.9,10.4c0.7-1.3,1.6-2.3,2.8-3.1c1.2-0.8,2.7-1.2,4.3-1.2c1.7,0,3.1,0.4,4.3,1.2s2.2,1.8,2.8,3.1
		c0.7,1.3,1,2.7,1,4.3s-0.3,3-1,4.3s-1.6,2.3-2.8,3.1c-1.2,0.8-2.7,1.2-4.3,1.2s-3.1-0.4-4.3-1.2c-1.2-0.8-2.2-1.8-2.8-3.1
		c-0.7-1.3-1-2.7-1-4.3S217.3,11.7,217.9,10.4z M220.4,17.7c0.4,0.9,1.1,1.6,1.9,2.2s1.8,0.8,2.8,0.8c1.1,0,2-0.3,2.8-0.8
		s1.4-1.3,1.9-2.2c0.4-0.9,0.7-1.9,0.7-3.1s-0.2-2.1-0.7-3.1c-0.4-0.9-1.1-1.6-1.9-2.2c-0.8-0.5-1.8-0.8-2.8-0.8
		c-1.1,0-2,0.3-2.8,0.8s-1.4,1.3-1.9,2.2c-0.4,0.9-0.7,1.9-0.7,3.1S219.9,16.8,220.4,17.7z"/>
	<path class="st1" d="M238.1,10.4c0.7-1.3,1.6-2.3,2.8-3.1c1.2-0.8,2.7-1.2,4.3-1.2c1.7,0,3.1,0.4,4.3,1.2s2.2,1.8,2.8,3.1
		c0.7,1.3,1,2.7,1,4.3s-0.3,3-1,4.3s-1.6,2.3-2.8,3.1c-1.2,0.8-2.7,1.2-4.3,1.2s-3.1-0.4-4.3-1.2c-1.2-0.8-2.2-1.8-2.8-3.1
		c-0.7-1.3-1-2.7-1-4.3S237.4,11.7,238.1,10.4z M240.5,17.7c0.4,0.9,1.1,1.6,1.9,2.2s1.8,0.8,2.8,0.8c1.1,0,2-0.3,2.8-0.8
		s1.4-1.3,1.9-2.2c0.4-0.9,0.7-1.9,0.7-3.1s-0.2-2.1-0.7-3.1c-0.4-0.9-1.1-1.6-1.9-2.2c-0.8-0.5-1.8-0.8-2.8-0.8
		c-1.1,0-2,0.3-2.8,0.8s-1.4,1.3-1.9,2.2c-0.4,0.9-0.7,1.9-0.7,3.1S240,16.8,240.5,17.7z"/>
</g>
<g class="st0">
	<path class="st1" d="M259.4,22c-1.1-0.7-1.9-1.8-2.5-3.1c-0.6-1.3-0.9-2.7-0.9-4.3s0.3-3.1,0.9-4.4s1.4-2.3,2.5-3.1
		s2.4-1.1,3.8-1.1c1.2,0,2.2,0.3,3.1,0.8s1.6,1.2,2,2V0.2h2.7v22.7h-2.7v-2.5c-0.5,0.8-1.2,1.4-2.1,2c-0.9,0.5-1.9,0.8-3.1,0.8
		C261.7,23.2,260.5,22.8,259.4,22z M266.1,19.9c0.7-0.5,1.3-1.2,1.7-2.1c0.4-0.9,0.6-2,0.6-3.1c0-1.2-0.2-2.2-0.6-3.1
		s-1-1.6-1.7-2.1s-1.6-0.8-2.6-0.8c-0.9,0-1.8,0.3-2.5,0.8s-1.3,1.2-1.8,2.1c-0.4,0.9-0.6,2-0.6,3.1c0,1.2,0.2,2.2,0.6,3.1
		s1,1.6,1.8,2.1c0.7,0.5,1.6,0.8,2.5,0.8C264.5,20.7,265.4,20.4,266.1,19.9z"/>
</g>
<g id="_Group_">
	<path id="_Compound_Path_" class="st2" d="M1,0.7h24.4V6c-1.7-1.4-5.4-2-9.3-2v14.5c0,2.2,0.2,2.8,1,3.9H9.3c0.8-1.1,1-1.7,1-3.9
		V3.9c-3.9,0-7.6,0.6-9.3,2V0.7z M37.1,19c2.5,0,6.7-0.6,8.3-2v5.3H27.6c0.9-1,1-1.7,1-3.8V4.4c0-2.1-0.1-2.8-1-3.8h16.9v5.3
		c-1.6-1.4-5.8-2-8.3-2h-2v5.8h1.5c1.7,0.1,3.4-0.1,5.1-0.6v4.3c-1.7-0.5-3.4-0.7-5.1-0.6h-1.4v6.3h2.8V19z M60.4,9
		c4.2,0.6,7.8,2.1,7.8,6.7c0,5.4-5.1,7.1-10.7,7.1c-3.2,0.1-6.5-0.3-9.6-1.4v-4.9c2.8,1.9,6.2,2.9,9.6,2.9c2.7,0,5.2-0.6,5.2-2.7
		s-2.3-2.5-7-3.3C51.6,12.8,48,11,47.9,7c0-5.4,5.1-7,10-7c3,0,6.1,0.4,9,1.3v5.4c-2.6-2.2-5.9-3.3-9.3-3.3c-2.3,0-4.5,0.7-4.5,2.5
		C53.1,8.1,56.4,8.4,60.4,9z M84.6,0.2c2.2,0,4.4,0.2,6.5,0.8v5.4c-1.7-1.8-4-2.9-6.5-2.9c-4.3-0.2-8,3.1-8.2,7.3c0,0.2,0,0.4,0,0.7
		c-0.1,4.3,3.3,7.9,7.5,8c0.2,0,0.4,0,0.7,0c2.5,0,4.8-1,6.5-2.9V22c-2.1,0.5-4.3,0.8-6.5,0.8c-8.5,0-14.7-4.2-14.7-11.3
		S76.1,0.2,84.6,0.2z"/>
	<path id="_Compound_Path_2" class="st2" d="M106.4,0.2c-8.8,0-13.8,5.1-13.8,11.3s5,11.3,13.8,11.3s13.8-5.1,13.8-11.3
		S115.2,0.2,106.4,0.2z M106.4,19.5c-4.4,0-7.3-3.6-7.3-8s2.9-8,7.3-8s7.3,3.6,7.3,8S110.8,19.5,106.4,19.5z"/>
	<path id="_Path_" class="st1" d="M105.2,28.2H120v0.1l0,0l0,0l0,0c-1.5,0.9-2.8,1.9-4,3.2c-1.7,1.6-3,2.7-5.7,2.7H96.1
		c0,0-0.1,0-0.1-0.1l0,0c0,0,0,0,0-0.1l0,0c1.4-0.9,2.7-2,3.8-3.3C101.2,29.2,103.2,28.2,105.2,28.2"/>
	<path id="_Path_2" class="st1" d="M81.2,28.2H96v0.1l0,0l0,0l0,0c-1.5,0.9-2.8,1.9-4,3.2c-1.8,1.7-3.1,2.7-5.8,2.7H72.1
		c0,0-0.1,0-0.1-0.1l0,0c0,0,0,0,0-0.1l0,0c1.4-0.9,2.7-2,3.8-3.3C77.2,29.2,79.1,28.3,81.2,28.2"/>
	<path id="_Path_3" class="st1" d="M57.2,28.2H72v0.1l0,0l0,0l0,0c-1.5,0.9-2.8,1.9-4,3.2c-1.8,1.7-3.1,2.7-5.8,2.7h-14
		c0,0-0.1,0-0.1-0.1l0,0c0,0,0,0,0-0.1l0,0c1.4-0.9,2.7-2,3.8-3.3C53.2,29.2,55.1,28.3,57.2,28.2"/>
	<path id="_Path_4" class="st1" d="M33.2,28.2H48v0.1l0,0l0,0l0,0c-1.5,0.9-2.8,1.9-4,3.2c-1.8,1.7-3.1,2.7-5.8,2.7H24.1
		c0,0-0.1,0-0.1-0.1l0,0c0,0,0,0,0-0.1l0,0c1.4-0.9,2.7-2,3.9-3.3C29.2,29.2,31.1,28.3,33.2,28.2"/>
	<path id="_Path_5" class="st1" d="M9.1,28.2h14.8v0.1l0,0l0,0l0,0c-1.5,0.9-2.8,1.9-4,3.2c-1.8,1.7-3.1,2.7-5.8,2.7h-14
		c0,0-0.1,0-0.1-0.1l0,0c0,0,0,0,0-0.1l0,0c1.4-0.9,2.7-2,3.8-3.3C5.2,29.2,7.1,28.3,9.1,28.2"/>
</g>
</svg>
